<svg width="22" height="22" viewBox="0 0 22 22" fill="none" xmlns="http://www.w3.org/2000/svg">
<path d="M15 7.35815C16.5913 7.35815 18.1174 7.99049 19.2426 9.11606C20.3679 10.2416 21 11.7682 21 13.36V20.3622H17V13.36C17 12.8294 16.7893 12.3206 16.4142 11.9454C16.0391 11.5702 15.5304 11.3594 15 11.3594C14.4696 11.3594 13.9609 11.5702 13.5858 11.9454C13.2107 12.3206 13 12.8294 13 13.36V20.3622H9V13.36C9 11.7682 9.63214 10.2416 10.7574 9.11606C11.8826 7.99049 13.4087 7.35815 15 7.35815Z" stroke="white" stroke-width="2" stroke-linecap="round" stroke-linejoin="round"/>
<path d="M5 8.3584H1V20.3621H5V8.3584Z" stroke="white" stroke-width="2" stroke-linecap="round" stroke-linejoin="round"/>
<path d="M3 5.35745C4.10457 5.35745 5 4.46174 5 3.35683C5 2.25191 4.10457 1.3562 3 1.3562C1.89543 1.3562 1 2.25191 1 3.35683C1 4.46174 1.89543 5.35745 3 5.35745Z" stroke="white" stroke-width="2" stroke-linecap="round" stroke-linejoin="round"/>
</svg>
